<mxfile host="app.diagrams.net" modified="2023-11-08T17:37:11.088Z" agent="Mozilla/5.0 (Windows NT 10.0; Win64; x64) AppleWebKit/537.36 (KHTML, like Gecko) Chrome/119.0.0.0 Safari/537.36" etag="-8rvFgsgU1MMPIIz9Z_h" version="22.0.8" type="google">
  <diagram name="Page-1" id="2hhlV5lICPI1_EzE-fT2">
    <mxGraphModel dx="1730" dy="516" grid="1" gridSize="10" guides="1" tooltips="1" connect="1" arrows="1" fold="1" page="1" pageScale="1" pageWidth="850" pageHeight="1100" math="0" shadow="0">
      <root>
        <mxCell id="0" />
        <mxCell id="1" parent="0" />
        <mxCell id="e7iBW-JTomvz6q2-NAj2-3" value="" style="edgeStyle=orthogonalEdgeStyle;rounded=0;orthogonalLoop=1;jettySize=auto;html=1;" parent="1" source="e7iBW-JTomvz6q2-NAj2-1" target="e7iBW-JTomvz6q2-NAj2-2" edge="1">
          <mxGeometry relative="1" as="geometry" />
        </mxCell>
        <mxCell id="e7iBW-JTomvz6q2-NAj2-1" value="Open web app" style="strokeWidth=2;html=1;shape=mxgraph.flowchart.terminator;whiteSpace=wrap;" parent="1" vertex="1">
          <mxGeometry x="375" y="80" width="100" height="60" as="geometry" />
        </mxCell>
        <mxCell id="e7iBW-JTomvz6q2-NAj2-5" value="" style="edgeStyle=orthogonalEdgeStyle;rounded=0;orthogonalLoop=1;jettySize=auto;html=1;" parent="1" source="e7iBW-JTomvz6q2-NAj2-2" target="e7iBW-JTomvz6q2-NAj2-4" edge="1">
          <mxGeometry relative="1" as="geometry" />
        </mxCell>
        <mxCell id="e7iBW-JTomvz6q2-NAj2-7" value="" style="edgeStyle=orthogonalEdgeStyle;rounded=0;orthogonalLoop=1;jettySize=auto;html=1;" parent="1" source="e7iBW-JTomvz6q2-NAj2-2" target="e7iBW-JTomvz6q2-NAj2-6" edge="1">
          <mxGeometry relative="1" as="geometry" />
        </mxCell>
        <mxCell id="e7iBW-JTomvz6q2-NAj2-2" value="Is user logged in?" style="rhombus;whiteSpace=wrap;html=1;strokeWidth=2;" parent="1" vertex="1">
          <mxGeometry x="363" y="210" width="125" height="80" as="geometry" />
        </mxCell>
        <mxCell id="e7iBW-JTomvz6q2-NAj2-9" value="" style="edgeStyle=orthogonalEdgeStyle;rounded=0;orthogonalLoop=1;jettySize=auto;html=1;" parent="1" source="e7iBW-JTomvz6q2-NAj2-4" target="e7iBW-JTomvz6q2-NAj2-8" edge="1">
          <mxGeometry relative="1" as="geometry" />
        </mxCell>
        <mxCell id="e7iBW-JTomvz6q2-NAj2-13" value="" style="edgeStyle=orthogonalEdgeStyle;rounded=0;orthogonalLoop=1;jettySize=auto;html=1;" parent="1" source="e7iBW-JTomvz6q2-NAj2-4" target="e7iBW-JTomvz6q2-NAj2-12" edge="1">
          <mxGeometry relative="1" as="geometry" />
        </mxCell>
        <mxCell id="e7iBW-JTomvz6q2-NAj2-15" value="" style="edgeStyle=orthogonalEdgeStyle;rounded=0;orthogonalLoop=1;jettySize=auto;html=1;" parent="1" source="e7iBW-JTomvz6q2-NAj2-4" target="e7iBW-JTomvz6q2-NAj2-14" edge="1">
          <mxGeometry relative="1" as="geometry" />
        </mxCell>
        <mxCell id="e7iBW-JTomvz6q2-NAj2-4" value="Open dashboard" style="whiteSpace=wrap;html=1;strokeWidth=2;" parent="1" vertex="1">
          <mxGeometry x="365.5" y="380" width="120" height="60" as="geometry" />
        </mxCell>
        <mxCell id="e7iBW-JTomvz6q2-NAj2-6" value="open login/signup form" style="whiteSpace=wrap;html=1;strokeWidth=2;" parent="1" vertex="1">
          <mxGeometry x="570.5" y="220" width="120" height="60" as="geometry" />
        </mxCell>
        <mxCell id="e7iBW-JTomvz6q2-NAj2-17" value="" style="edgeStyle=orthogonalEdgeStyle;rounded=0;orthogonalLoop=1;jettySize=auto;html=1;" parent="1" source="e7iBW-JTomvz6q2-NAj2-8" target="e7iBW-JTomvz6q2-NAj2-16" edge="1">
          <mxGeometry relative="1" as="geometry" />
        </mxCell>
        <mxCell id="e7iBW-JTomvz6q2-NAj2-8" value="Create new task" style="whiteSpace=wrap;html=1;strokeWidth=2;" parent="1" vertex="1">
          <mxGeometry x="170" y="520" width="120" height="60" as="geometry" />
        </mxCell>
        <mxCell id="e7iBW-JTomvz6q2-NAj2-10" value="Yes" style="text;strokeColor=none;align=center;fillColor=none;html=1;verticalAlign=middle;whiteSpace=wrap;rounded=0;" parent="1" vertex="1">
          <mxGeometry x="415" y="310" width="60" height="30" as="geometry" />
        </mxCell>
        <mxCell id="e7iBW-JTomvz6q2-NAj2-11" value="No" style="text;strokeColor=none;align=center;fillColor=none;html=1;verticalAlign=middle;whiteSpace=wrap;rounded=0;" parent="1" vertex="1">
          <mxGeometry x="500" y="220" width="60" height="30" as="geometry" />
        </mxCell>
        <mxCell id="DKIYa8AIDG3xPpCdaN6d-2" value="" style="edgeStyle=orthogonalEdgeStyle;rounded=0;orthogonalLoop=1;jettySize=auto;html=1;" edge="1" parent="1" source="e7iBW-JTomvz6q2-NAj2-12" target="DKIYa8AIDG3xPpCdaN6d-1">
          <mxGeometry relative="1" as="geometry" />
        </mxCell>
        <mxCell id="DKIYa8AIDG3xPpCdaN6d-6" value="" style="edgeStyle=orthogonalEdgeStyle;rounded=0;orthogonalLoop=1;jettySize=auto;html=1;" edge="1" parent="1" source="e7iBW-JTomvz6q2-NAj2-12" target="DKIYa8AIDG3xPpCdaN6d-5">
          <mxGeometry relative="1" as="geometry" />
        </mxCell>
        <mxCell id="e7iBW-JTomvz6q2-NAj2-12" value="View pending tasks" style="whiteSpace=wrap;html=1;strokeWidth=2;" parent="1" vertex="1">
          <mxGeometry x="365.5" y="520" width="120" height="60" as="geometry" />
        </mxCell>
        <mxCell id="e7iBW-JTomvz6q2-NAj2-14" value="View completed tasks" style="whiteSpace=wrap;html=1;strokeWidth=2;" parent="1" vertex="1">
          <mxGeometry x="580" y="510" width="120" height="60" as="geometry" />
        </mxCell>
        <mxCell id="e7iBW-JTomvz6q2-NAj2-21" value="" style="edgeStyle=orthogonalEdgeStyle;rounded=0;orthogonalLoop=1;jettySize=auto;html=1;" parent="1" source="e7iBW-JTomvz6q2-NAj2-16" target="e7iBW-JTomvz6q2-NAj2-20" edge="1">
          <mxGeometry relative="1" as="geometry" />
        </mxCell>
        <mxCell id="e7iBW-JTomvz6q2-NAj2-16" value="Open new task form" style="whiteSpace=wrap;html=1;strokeWidth=2;" parent="1" vertex="1">
          <mxGeometry x="-20" y="630" width="120" height="60" as="geometry" />
        </mxCell>
        <mxCell id="e7iBW-JTomvz6q2-NAj2-22" style="edgeStyle=orthogonalEdgeStyle;rounded=0;orthogonalLoop=1;jettySize=auto;html=1;entryX=0;entryY=0.5;entryDx=0;entryDy=0;" parent="1" source="e7iBW-JTomvz6q2-NAj2-20" target="e7iBW-JTomvz6q2-NAj2-4" edge="1">
          <mxGeometry relative="1" as="geometry">
            <Array as="points">
              <mxPoint x="-70" y="800" />
              <mxPoint x="-70" y="390" />
              <mxPoint x="366" y="390" />
              <mxPoint x="366" y="410" />
              <mxPoint x="360" y="410" />
              <mxPoint x="360" y="390" />
              <mxPoint x="366" y="390" />
            </Array>
            <mxPoint x="320" y="390" as="targetPoint" />
          </mxGeometry>
        </mxCell>
        <mxCell id="e7iBW-JTomvz6q2-NAj2-20" value="Save task" style="whiteSpace=wrap;html=1;strokeWidth=2;" parent="1" vertex="1">
          <mxGeometry x="-20" y="770" width="120" height="60" as="geometry" />
        </mxCell>
        <mxCell id="e7iBW-JTomvz6q2-NAj2-24" value="Return to dashboard" style="text;strokeColor=none;align=center;fillColor=none;html=1;verticalAlign=middle;whiteSpace=wrap;rounded=0;" parent="1" vertex="1">
          <mxGeometry x="-140" y="550" width="60" height="30" as="geometry" />
        </mxCell>
        <mxCell id="DKIYa8AIDG3xPpCdaN6d-1" value="Edit task" style="whiteSpace=wrap;html=1;strokeWidth=2;" vertex="1" parent="1">
          <mxGeometry x="243" y="680" width="120" height="60" as="geometry" />
        </mxCell>
        <mxCell id="DKIYa8AIDG3xPpCdaN6d-5" value="Delete Task" style="whiteSpace=wrap;html=1;strokeWidth=2;" vertex="1" parent="1">
          <mxGeometry x="490" y="680" width="120" height="60" as="geometry" />
        </mxCell>
        <mxCell id="DKIYa8AIDG3xPpCdaN6d-7" style="edgeStyle=orthogonalEdgeStyle;rounded=0;orthogonalLoop=1;jettySize=auto;html=1;entryX=0.671;entryY=1.033;entryDx=0;entryDy=0;entryPerimeter=0;" edge="1" parent="1" source="DKIYa8AIDG3xPpCdaN6d-5" target="e7iBW-JTomvz6q2-NAj2-12">
          <mxGeometry relative="1" as="geometry" />
        </mxCell>
        <mxCell id="DKIYa8AIDG3xPpCdaN6d-8" style="edgeStyle=orthogonalEdgeStyle;rounded=0;orthogonalLoop=1;jettySize=auto;html=1;entryX=0.329;entryY=1.033;entryDx=0;entryDy=0;entryPerimeter=0;" edge="1" parent="1" source="DKIYa8AIDG3xPpCdaN6d-1" target="e7iBW-JTomvz6q2-NAj2-12">
          <mxGeometry relative="1" as="geometry" />
        </mxCell>
      </root>
    </mxGraphModel>
  </diagram>
</mxfile>
